<svg xmlns="http://www.w3.org/2000/svg" viewBox="0 0 100 100" width="100" height="100" role="img" aria-label="stredio"><g transform="translate(23.00,20.00) scale(0.2000)"><path d="M50.50,298.75 C33.13,292.73 32.90,292.58 27.22,283.48 C24.39,278.94 24.12,277.81 24.39,271.75 C24.66,265.83 25.17,264.36 28.64,259.29 C34.58,250.62 39.75,247.85 51.79,246.88 C57.13,246.45 98.00,246.08 142.61,246.05 L223.72,246.00 L227.50,249.00 C229.58,250.65 231.66,252.00 232.13,252.00 C232.60,252.00 234.37,255.04 236.07,258.75 C239.71,266.70 239.61,271.80 235.62,280.51 C233.72,284.68 231.97,286.66 227.76,289.46 C221.36,293.71 220.41,293.85 191.00,294.86 C173.50,295.46 169.03,295.91 166.98,297.26 C164.90,298.64 162.43,298.86 152.73,298.56 C146.28,298.36 140.75,298.60 140.44,299.09 C139.64,300.39 54.29,300.06 50.50,298.75 Z M80.00,220.01 C76.42,219.59 69.90,218.53 65.50,217.66 C61.10,216.78 56.25,216.05 54.73,216.03 C53.21,216.02 49.43,214.65 46.34,213.00 C43.25,211.35 40.16,210.00 39.47,210.00 C37.85,210.00 26.25,198.81 21.80,192.97 C19.90,190.48 17.81,186.91 17.16,185.03 C16.51,183.16 15.36,180.93 14.60,180.06 C11.72,176.79 7.88,165.10 6.36,155.00 C5.49,149.22 3.96,142.90 2.96,140.94 C0.31,135.72 0.43,113.09 3.16,104.23 C4.22,100.78 5.51,94.34 6.01,89.91 C6.56,85.08 7.71,80.58 8.88,78.68 C9.95,76.93 11.16,73.70 11.55,71.50 C11.95,69.30 13.33,65.66 14.63,63.41 C15.94,61.16 17.00,58.62 17.00,57.76 C17.00,56.90 18.77,53.79 20.94,50.85 C23.11,47.91 25.92,43.97 27.19,42.10 C31.42,35.87 45.11,23.22 52.38,18.82 C56.09,16.58 67.58,12.00 69.51,12.00 C70.76,12.00 74.69,11.10 78.24,10.01 C86.19,7.55 98.50,6.20 120.00,5.42 C130.55,5.04 138.48,4.24 142.00,3.22 C149.88,0.91 157.57,0.83 161.91,2.99 C164.65,4.36 168.99,4.93 180.25,5.40 C190.02,5.80 196.42,6.55 199.25,7.61 C201.59,8.50 206.20,9.96 209.50,10.87 C215.35,12.47 219.79,15.05 228.32,21.81 C236.96,28.64 239.06,30.58 240.99,33.50 C242.08,35.15 244.56,38.52 246.50,41.00 C248.44,43.48 250.83,47.08 251.81,49.00 C252.78,50.92 254.57,54.08 255.79,56.00 C257.00,57.92 258.01,60.17 258.03,61.00 C258.05,61.83 259.40,65.19 261.03,68.47 C262.66,71.76 264.00,76.04 264.01,77.97 C264.01,82.71 265.81,88.91 268.11,92.15 C269.80,94.53 270.00,96.80 270.00,113.94 C270.00,131.78 269.86,133.27 267.91,135.91 C266.57,137.72 265.38,141.73 264.58,147.12 C263.90,151.73 262.40,157.30 261.25,159.50 C260.11,161.70 257.49,166.88 255.45,171.00 C253.41,175.12 250.48,179.85 248.93,181.50 C247.39,183.15 243.78,187.09 240.91,190.26 C235.78,195.92 231.97,198.68 223.00,203.23 C220.53,204.48 216.93,206.46 215.00,207.63 C213.07,208.79 209.47,210.00 207.00,210.32 C204.52,210.63 200.41,211.82 197.85,212.95 C195.08,214.17 189.04,215.42 182.86,216.05 C177.16,216.63 169.35,217.82 165.50,218.69 C159.95,219.95 151.04,220.33 122.50,220.53 C102.70,220.67 83.58,220.44 80.00,220.01 Z M146.00,159.85 C149.03,159.18 154.65,158.57 158.50,158.50 C162.35,158.42 166.40,158.08 167.50,157.74 C168.60,157.39 176.43,156.60 184.90,155.97 C197.61,155.02 201.49,154.35 207.07,152.11 C218.92,147.34 225.01,138.67 230.44,118.80 C233.51,107.55 233.30,103.23 229.06,90.50 C225.77,80.63 223.63,76.79 218.51,71.57 C210.01,62.90 197.10,58.00 182.75,58.00 C179.66,58.00 175.95,57.55 174.52,57.01 C170.54,55.49 116.51,55.45 111.07,56.95 C108.63,57.63 105.41,57.93 103.91,57.63 C102.41,57.33 99.68,57.54 97.84,58.09 C96.00,58.64 90.81,59.49 86.29,59.98 C80.46,60.61 76.81,61.61 73.70,63.43 C71.29,64.85 68.62,66.00 67.76,66.00 C64.31,66.00 52.00,77.36 48.81,83.50 C47.66,85.70 45.66,88.77 44.36,90.33 C43.06,91.88 42.00,94.27 42.00,95.64 C42.00,97.01 41.12,100.24 40.05,102.81 C36.45,111.44 35.83,115.48 37.05,122.25 C37.66,125.69 39.03,130.16 40.08,132.20 C41.14,134.23 42.00,136.57 42.00,137.39 C42.00,139.61 49.59,147.95 54.67,151.32 C58.96,154.16 65.28,156.03 77.00,157.93 C80.03,158.42 83.62,159.26 85.00,159.78 C88.84,161.25 139.40,161.31 146.00,159.85 Z" fill="#FFFFFF" fill-rule="evenodd"/></g></svg>